# xmcd CD database file
#
# Track frame offsets:
#	150
#	35955
#	67697
#	105635
#	130597
#	162140
#	204397
#	259885
#	316157
#
# Disc length: 4485 seconds
#
# Revision: 1
# Processed by: cddbd v1.5.2PL0 Copyright (c) Steve Scherf et al.
# Submitted via: CDex 1.51
#
DISCID=73118309
DTITLE=Il Polistrumentismo Nel Jazz - Il Polistrumentismo Nel Jazz
DYEAR=2003
DGENRE=Jazz
TTITLE0=Giuffré-Jaume - Old Hudson Bridge
TTITLE1=Kollektief-Mondriaan Strings - Congratulation Cigar
TTITLE2=Geremia - Tip Tap
TTITLE3=Trovesi - Studio Contrappuntistico
TTITLE4=Surman-Krog - Don't Just Sing
TTITLE5=Colombo - Cinque Pezzi Elementari
TTITLE6=Maltese - Nabi Naif Suite
TTITLE7=Cavallanti-Tononi - Black Cherry
TTITLE8=Coscia-Trovesi-Colombo - Radici Plus
EXTD=Allegato a Musica Jazz nr. 5/2003 YEAR: 2003
EXTT0=
EXTT1=
EXTT2=
EXTT3=
EXTT4=
EXTT5=
EXTT6=
EXTT7=
EXTT8=
PLAYORDER=
